<svg xmlns="http://www.w3.org/2000/svg" width="64" height="64" id="planet"><g color="#000" transform="translate(0 -988.362)"><circle cx="32" cy="1020.362" r="31.5" fill="#34485c" stroke="#34485c" stroke-dashoffset="1.5" stroke-linecap="round" stroke-linejoin="round" overflow="visible"></circle><path fill="#fff" d="m40.13 998.242-.621-2.38-2.38-.62 2.38-.62.62-2.38.62 2.38 2.38.62-2.38.62zM15 1007.355l-.413-1.586-1.587-.414 1.587-.413.413-1.587.413 1.587 1.587.413-1.587.414zM10 1025.112l-.568-2.181-2.182-.569 2.182-.568.568-2.182.568 2.182 2.182.568-2.182.569zM55 1022.862l-.517-1.983-1.984-.517 1.984-.516.516-1.984.517 1.984 1.983.516-1.983.517zM16.502 1001.363l-.31-1.19-1.19-.31 1.19-.31.31-1.19.31 1.19 1.19.31-1.19.31zM53.125 1039.23l-.388-1.488-1.487-.387 1.487-.388.388-1.487.387 1.487 1.488.388-1.488.387z" overflow="visible"></path><g transform="rotate(-30 30.84 1016.312)"><path fill="#576d7e" d="M16.532 1015.862a4.499 4.499 0 0 0-4.532 4.5c0 2.473 1.99 4.5 4.532 4.5H39v-9H16.532z" overflow="visible"></path><path fill="#f05542" d="M16.5 1016.862a3.5 3.5 0 1 0 0 7h8a.499.499 0 1 0 0-1h-1a.499.499 0 1 1 0-1h2a.499.499 0 1 0 0-1h-1a.499.499 0 1 1 0-1h4a.499.499 0 1 0 0-1h-6.005a.499.499 0 1 1 0-1h1a.499.499 0 1 0 0-1H20.03z" overflow="visible"></path><path fill="#f05542" d="M27.5 1020.862a.499.499 0 1 1 0 1 .499.499 0 1 1 0-1z" overflow="visible"></path><rect width="3" height="1" x="26" y="1022.862" fill="#f05542" overflow="visible" ry=".5"></rect><rect width="1" height="1" x="25" y="1016.862" fill="#f05542" overflow="visible" ry=".5"></rect><rect width="2" height="1" x="29" y="1020.862" fill="#f05542" overflow="visible" ry=".5"></rect><path fill="#f05542" d="M27.5 1016.862h2a.499.499 0 1 1 0 1h-2a.499.499 0 1 1 0-1z" overflow="visible"></path><path fill="#f17f53" d="M21.75 1017.862a.499.499 0 1 0 0 1h1a.499.499 0 1 1 0-1zm1.75 2a.499.499 0 1 0 0 1h1a.499.499 0 1 1 0-1zm-1 2a.499.499 0 1 0 0 1h1a.499.499 0 1 1 0-1zm1.7 1h.3a.499.499 0 1 1 0 1h-.3a.499.499 0 1 1 0-1zm.9-2h.4a.499.499 0 1 1 0 1h-.4a.499.499 0 1 1 0-1zm2.9-2h.5a.499.499 0 1 1 0 1H28a.499.499 0 1 1 0-1zm-5-2h.5a.499.499 0 1 1 0 1H23a.499.499 0 1 1 0-1zm5.2 6h.3a.499.499 0 1 1 0 1h-.3a.499.499 0 1 1 0-1zm2-2h.3a.499.499 0 1 1 0 1h-.3a.499.499 0 1 1 0-1zm-1-4h.3a.499.499 0 1 1 0 1h-.3a.499.499 0 1 1 0-1z" overflow="visible"></path><path fill="#ffe90a" d="M17.035 1014.862c-3.309 0-6.035 2.433-6.035 5.5s2.726 5.5 6.035 5.5H40.5a.499.499 0 1 0 0-1h-1a.499.499 0 1 1 0-1h1.797a.499.499 0 1 0 0-1h-.75a.499.499 0 1 1 0-1H42.5a.499.499 0 1 0 0-1h-2a.499.499 0 1 1 0-1h1a.499.499 0 1 0 0-1h-1.994a.499.499 0 1 1 0-1H42.5a.499.499 0 1 0 0-1h-1.973a.499.499 0 1 1 0-1h.973a.499.499 0 1 0 0-1H17.035zm0 1H38.5a.499.499 0 1 1 0 1h-3.492c-.277 0-.5.223-.5.5 0 .282.223.5.5.5h.5a.499.499 0 1 1 0 1H33.5a.499.499 0 1 0 0 1h4.078a.499.499 0 1 1 0 1h-1.031a.499.499 0 1 0 0 1H38.5a.499.499 0 1 1 0 1h-3.969a.499.499 0 1 0 0 1h1.032a.499.499 0 1 1 0 1H17.035c-2.824 0-5.035-2.027-5.035-4.5s2.21-4.5 5.035-4.5zm20.465 2a.5.5 0 1 1 0 1 .5.5 0 0 1 0-1zm0 6a.5.5 0 0 1 .5.5.5.5 0 0 1-.5.5.5.5 0 0 1-.5-.5.5.5 0 0 1 .5-.5zm5 1a.5.5 0 1 0 0 1 .5.5 0 0 0 0-1z" overflow="visible"></path><circle cx="16.75" cy="1020.362" r="2.75" fill="#f17f53" overflow="visible"></circle><rect width="1" height="1" x="43.5" y="1016.862" fill="#ffe90a" overflow="visible" ry=".5"></rect><path fill="#ffe90a" d="M46 1016.862h2a.499.499 0 1 1 0 1h-2a.499.499 0 1 1 0-1zm-.5 4a.499.499 0 1 1 0 1 .499.499 0 1 1 0-1z" overflow="visible"></path><rect width="2" height="1" x="47" y="1020.862" fill="#ffe90a" overflow="visible" ry=".5"></rect><path fill="#ffe90a" d="M43.5 1018.862h2a.499.499 0 1 1 0 1h-2a.499.499 0 1 1 0-1z" overflow="visible"></path><rect width="1" height="1" x="-50.5" y="1022.862" fill="#ffe90a" overflow="visible" ry=".5" transform="scale(-1 1)"></rect><path fill="#ffe90a" d="M45.5 1022.862h-2a.499.499 0 1 0 0 1h2a.499.499 0 1 0 0-1z" overflow="visible"></path><rect width="1" height="1" x="-49.5" y="1014.862" fill="#ffe90a" overflow="visible" ry=".5" transform="scale(-1 1)"></rect><path fill="#ffe90a" d="M45.3 1014.862h-2a.499.499 0 1 0 0 1h2a.499.499 0 1 0 0-1zm.7 10h2a.499.499 0 1 1 0 1h-2a.499.499 0 1 1 0-1z" overflow="visible"></path></g><path fill="#fff" d="m36 1035.355-.413-1.586-1.587-.414 1.587-.413.413-1.587.413 1.587 1.587.413-1.587.414zM33.501 1032.363l-.31-1.19-1.19-.31 1.19-.31.31-1.19.31 1.19 1.19.31-1.19.31zM18 1042.363l-.517-1.984-1.983-.516 1.983-.517.517-1.983.517 1.983 1.983.517-1.983.516z" overflow="visible"></path></g></svg>